HIERARCHY
ROOT Hips
{
	OFFSET 0.000000 35.082581 0.000000
	CHANNELS 6 Xposition Yposition Zposition Xrotation Yrotation Zrotation 
	JOINT Spine
	{
		OFFSET 0.000000 6.876099 0.125700
		CHANNELS 3 Xrotation Yrotation Zrotation
		JOINT Spine1
		{
			OFFSET 0.000000 5.730043 0.104720
			CHANNELS 3 Xrotation Yrotation Zrotation
			JOINT Spine1_split
			{
				OFFSET 0.000000 5.730043 0.104720
				CHANNELS 3 Xrotation Yrotation Zrotation
				JOINT Spine2
				{
					OFFSET 0.000000 5.730043 0.104720
					CHANNELS 3 Xrotation Yrotation Zrotation
					JOINT Neck
					{
						OFFSET 0.000000 10.314075 0.188496
						CHANNELS 3 Xrotation Yrotation Zrotation
						JOINT Head
						{
							OFFSET 0.000000 7.643700 -2.377400
							CHANNELS 3 Xrotation Yrotation Zrotation
							JOINT HeadTop_End
							{
								OFFSET 0.000000 43.788605 -13.619600
								CHANNELS 3 Xrotation Yrotation Zrotation
								End Site
								{
									OFFSET 0.000000 0.000000 0.000000
								}
							}
						}
					}
					JOINT LeftShoulder
					{
						OFFSET 2.196100 4.412489 0.087492
						CHANNELS 3 Xrotation Yrotation Zrotation
						JOINT LeftShoulder_split
						{
							OFFSET 2.196100 4.412489 0.087492
							CHANNELS 3 Xrotation Yrotation Zrotation
							JOINT LeftArm
							{
								OFFSET 8.771219 -2.981674 -0.026999
								CHANNELS 3 Xrotation Yrotation Zrotation
								JOINT LeftForeArm
								{
									OFFSET 8.512804 0.000000 -0.000000
									CHANNELS 3 Xrotation Yrotation Zrotation
									JOINT LeftHand
									{
										OFFSET 18.484802 0.000000 -0.000000
										CHANNELS 3 Xrotation Yrotation Zrotation
										JOINT LeftHandThumb1
										{
											OFFSET 2.499420 -1.158070 2.653252
											CHANNELS 3 Xrotation Yrotation Zrotation
											JOINT LeftHandThumb2
											{
												OFFSET 2.370079 -1.368366 1.368366
												CHANNELS 3 Xrotation Yrotation Zrotation
												JOINT LeftHandThumb3
												{
													OFFSET 2.676727 -1.545410 1.545409
													CHANNELS 3 Xrotation Yrotation Zrotation
													JOINT LeftHandThumb4
													{
														OFFSET 1.692226 -0.977005 0.977007
														CHANNELS 3 Xrotation Yrotation Zrotation
														End Site
														{
															OFFSET 0.000000 0.000000 0.000000
														}
													}
												}
											}
										}
										JOINT LeftHandIndex1
										{
											OFFSET 7.924831 -0.457527 2.345128
											CHANNELS 3 Xrotation Yrotation Zrotation
											JOINT LeftHandIndex2
											{
												OFFSET 3.643303 0.000000 0.000000
												CHANNELS 3 Xrotation Yrotation Zrotation
												JOINT LeftHandIndex3
												{
													OFFSET 3.810799 0.000000 0.000000
													CHANNELS 3 Xrotation Yrotation Zrotation
													JOINT LeftHandIndex4
													{
														OFFSET 2.403702 0.000000 0.000000
														CHANNELS 3 Xrotation Yrotation Zrotation
														End Site
														{
															OFFSET 0.000000 0.000000 0.000000
														}
													}
												}
											}
										}
										JOINT LeftHandMiddle1
										{
											OFFSET 8.563995 0.000000 -0.000000
											CHANNELS 3 Xrotation Yrotation Zrotation
											JOINT LeftHandMiddle2
											{
												OFFSET 3.861618 0.000000 0.000000
												CHANNELS 3 Xrotation Yrotation Zrotation
												JOINT LeftHandMiddle3
												{
													OFFSET 3.701603 0.000000 0.000000
													CHANNELS 3 Xrotation Yrotation Zrotation
													JOINT LeftHandMiddle4
													{
														OFFSET 2.322544 0.000000 0.000000
														CHANNELS 3 Xrotation Yrotation Zrotation
														End Site
														{
															OFFSET 0.000000 0.000000 0.000000
														}
													}
												}
											}
										}
										JOINT LeftHandRing1
										{
											OFFSET 8.426460 -0.424637 -3.286992
											CHANNELS 3 Xrotation Yrotation Zrotation
											JOINT LeftHandRing2
											{
												OFFSET 3.126408 0.000000 0.000000
												CHANNELS 3 Xrotation Yrotation Zrotation
												JOINT LeftHandRing3
												{
													OFFSET 3.085026 0.000000 0.000000
													CHANNELS 3 Xrotation Yrotation Zrotation
													JOINT LeftHandRing4
													{
														OFFSET 1.644005 0.000000 0.000000
														CHANNELS 3 Xrotation Yrotation Zrotation
														End Site
														{
															OFFSET 0.000000 0.000000 0.000000
														}
													}
												}
											}
										}
									}
								}
							}
						}
					}
					JOINT RightShoulder
					{
						OFFSET -2.196100 4.412496 0.070690
						CHANNELS 3 Xrotation Yrotation Zrotation
						JOINT RightShoulder_split
						{
							OFFSET -2.196100 4.412496 0.070690
							CHANNELS 3 Xrotation Yrotation Zrotation
							JOINT RightArm
							{
								OFFSET -8.771282 -2.981682 -0.094208
								CHANNELS 3 Xrotation Yrotation Zrotation
								JOINT RightForeArm
								{
									OFFSET -8.494598 0.000000 0.000000
									CHANNELS 3 Xrotation Yrotation Zrotation
									JOINT RightHand
									{
										OFFSET -18.483803 0.000000 0.000001
										CHANNELS 3 Xrotation Yrotation Zrotation
										JOINT RightHandThumb1
										{
											OFFSET -2.527351 -1.008072 2.575253
											CHANNELS 3 Xrotation Yrotation Zrotation
											JOINT RightHandThumb2
											{
												OFFSET -2.321518 -1.340328 1.340329
												CHANNELS 3 Xrotation Yrotation Zrotation
												JOINT RightHandThumb3
												{
													OFFSET -2.657753 -1.534454 1.534455
													CHANNELS 3 Xrotation Yrotation Zrotation
													JOINT RightHandThumb4
													{
														OFFSET -1.807510 -1.043568 1.043567
														CHANNELS 3 Xrotation Yrotation Zrotation
														End Site
														{
															OFFSET 0.000000 0.000000 0.000000
														}
													}
												}
											}
										}
										JOINT RightHandIndex1
										{
											OFFSET -8.811420 0.015533 2.887987
											CHANNELS 3 Xrotation Yrotation Zrotation
											JOINT RightHandIndex2
											{
												OFFSET -3.537502 0.000000 0.000000
												CHANNELS 3 Xrotation Yrotation Zrotation
												JOINT RightHandIndex3
												{
													OFFSET -3.356201 0.000000 0.000000
													CHANNELS 3 Xrotation Yrotation Zrotation
													JOINT RightHandIndex4
													{
														OFFSET -1.933098 0.000000 0.000000
														CHANNELS 3 Xrotation Yrotation Zrotation
														End Site
														{
															OFFSET 0.000000 0.000000 0.000000
														}
													}
												}
											}
										}
										JOINT RightHandMiddle1
										{
											OFFSET -8.178135 0.000000 0.000000
											CHANNELS 3 Xrotation Yrotation Zrotation
											JOINT RightHandMiddle2
											{
												OFFSET -3.901302 0.000000 0.000000
												CHANNELS 3 Xrotation Yrotation Zrotation
												JOINT RightHandMiddle3
												{
													OFFSET -3.909599 0.000000 0.000000
													CHANNELS 3 Xrotation Yrotation Zrotation
													JOINT RightHandMiddle4
													{
														OFFSET -2.376003 0.000000 0.000000
														CHANNELS 3 Xrotation Yrotation Zrotation
														End Site
														{
															OFFSET 0.000000 0.000000 0.000000
														}
													}
												}
											}
										}
										JOINT RightHandRing1
										{
											OFFSET -7.559013 0.014137 -2.865403
											CHANNELS 3 Xrotation Yrotation Zrotation
											JOINT RightHandRing2
											{
												OFFSET -3.449306 0.000000 0.000000
												CHANNELS 3 Xrotation Yrotation Zrotation
												JOINT RightHandRing3
												{
													OFFSET -3.362106 0.000000 0.000000
													CHANNELS 3 Xrotation Yrotation Zrotation
													JOINT RightHandRing4
													{
														OFFSET -2.076401 0.000000 0.000000
														CHANNELS 3 Xrotation Yrotation Zrotation
														End Site
														{
															OFFSET 0.000000 0.000000 0.000000
														}
													}
												}
											}
										}
									}
								}
							}
						}
					}
				}
			}
		}
	}
	JOINT LeftUpLeg
	{
		OFFSET 10.205400 -3.823500 0.155100
		CHANNELS 3 Xrotation Yrotation Zrotation
		JOINT LeftLeg
		{
			OFFSET 0.708757 -12.982077 0.567790
			CHANNELS 3 Xrotation Yrotation Zrotation
			JOINT LeftFoot
			{
				OFFSET -0.708756 -10.717838 -2.184338
				CHANNELS 3 Xrotation Yrotation Zrotation
				JOINT LeftToeBase
				{
					OFFSET 0.108149 -7.191104 7.560241
					CHANNELS 3 Xrotation Yrotation Zrotation
					JOINT LeftToe_End
					{
						OFFSET 0.070230 0.081724 4.490308
						CHANNELS 3 Xrotation Yrotation Zrotation
						End Site
						{
							OFFSET 0.000000 0.000000 0.000000
						}
					}
				}
			}
		}
	}
	JOINT RightUpLeg
	{
		OFFSET -10.205400 -3.823500 0.005500
		CHANNELS 3 Xrotation Yrotation Zrotation
		JOINT RightLeg
		{
			OFFSET -0.708756 -12.982134 0.610632
			CHANNELS 3 Xrotation Yrotation Zrotation
			JOINT RightFoot
			{
				OFFSET 0.708754 -10.717769 -1.945823
				CHANNELS 3 Xrotation Yrotation Zrotation
				JOINT RightToeBase
				{
					OFFSET -0.108140 -7.191069 7.372968
					CHANNELS 3 Xrotation Yrotation Zrotation
					JOINT RightToe_End
					{
						OFFSET -0.070227 0.081735 4.479403
						CHANNELS 3 Xrotation Yrotation Zrotation
						End Site
						{
							OFFSET 0.000000 0.000000 0.000000
						}
					}
				}
			}
		}
	}
}
MOTION
Frames: 6
Frame Time: 0.016667
0.074494 29.230804 0.119467 -10.673515 -53.571315 -2.791279 6.694496 0.902019 -2.268576 13.440113 1.505927 -5.282125 0.000000 0.000000 0.000000 13.440114 1.505924 -5.282123 3.996208 2.607467 -0.466377 -8.638517 40.681314 -5.376920 -0.000000 -0.000000 -0.000000 -0.177278 -6.033945 5.204495 0.000000 0.000000 0.000000 -21.071665 17.785773 -57.231477 0.000005 -126.318762 0.000011 -6.641474 -5.398313 -3.626817 -2.154162 6.800141 9.892473 25.836116 36.182429 -25.085215 4.659091 20.247594 19.841580 -0.000006 0.000003 0.000000 20.887342 7.645964 -92.409625 7.469754 5.623460 -106.086860 5.011196 5.790673 -81.733022 0.000001 0.000000 0.000001 12.668616 7.118949 -99.980466 7.120950 5.712086 -102.556008 4.565673 5.708604 -77.288016 0.000000 0.000000 0.000000 5.682267 8.252725 -95.779483 8.216140 5.353289 -113.878726 3.072441 5.151223 -61.606121 0.000001 -0.000001 -0.000000 10.920056 26.931048 3.130402 0.000000 0.000000 0.000000 -46.478160 38.185863 48.496095 -0.000028 110.564500 -0.000025 -26.511550 16.042999 15.588619 -8.123098 -3.695105 -18.700505 26.149328 -37.962106 25.226190 5.914720 -26.474933 -20.697048 0.000004 -0.000000 0.000001 19.570633 -6.576481 91.648530 5.944063 -4.476214 106.057661 3.989530 -4.609163 81.748642 -0.000000 0.000000 -0.000001 11.200841 -5.955873 99.192672 5.666713 -4.546678 102.532710 3.635302 -4.543913 77.311581 -0.000003 0.000002 -0.000001 4.287414 -6.986203 95.001600 6.537653 -4.261393 113.838141 2.447720 -4.100726 61.652026 0.000002 -0.000000 0.000001 -23.000068 11.249301 28.535055 44.110437 -8.673457 -1.932167 -10.941565 4.557952 -21.117586 -2.483951 -0.000007 0.000005 0.000000 -0.000002 -0.000000 -25.412141 5.910596 -30.392887 64.049983 9.602609 -8.018123 -27.893668 -9.349477 23.809290 -2.290862 0.000051 0.000004 -0.000000 -0.000000 0.000000 
-0.056905 29.263901 -0.035245 -10.895176 -53.056875 -2.499749 6.878339 0.444235 -2.785616 13.428627 1.385315 -5.296947 0.000000 0.000000 0.000000 13.420776 1.411919 -5.309467 4.071256 2.649594 -0.515533 -6.896899 40.845170 -6.341599 -0.000001 0.000000 -0.000000 -0.474795 -6.155473 3.198677 0.000000 0.000000 0.000000 -17.792057 18.997983 -56.885992 -0.000015 -127.660662 0.000000 -8.813709 -2.100047 4.977263 -2.188153 6.630858 9.840810 25.854643 36.200050 -25.080880 4.657095 20.274464 19.846897 -0.000004 -0.000001 -0.000002 20.610390 7.814808 -91.789273 7.445542 5.630353 -105.840010 4.988357 5.787337 -81.506594 0.000000 -0.000003 0.000000 12.580238 7.208646 -99.250196 7.098246 5.717060 -102.328050 4.544105 5.703713 -77.071042 -0.000001 -0.000002 0.000005 5.709279 8.240814 -95.092824 8.194819 5.362646 -113.650352 3.053768 5.141124 -61.397868 -0.000001 0.000003 -0.000001 10.865826 26.827590 2.963937 0.000000 0.000000 0.000000 -46.847892 38.723600 50.356563 -0.000017 107.879464 -0.000025 -24.744595 13.727466 13.795279 -8.127570 -3.556522 -18.647072 26.048243 -37.885048 25.176163 5.904382 -26.366012 -20.675925 0.000003 -0.000000 0.000001 19.390038 -6.733559 91.056182 5.924127 -4.481888 105.802342 3.970787 -4.606401 81.515480 -0.000002 -0.000000 0.000001 11.102789 -6.063337 98.288546 5.648067 -4.550756 102.297656 3.617469 -4.539868 77.086314 0.000001 -0.000002 0.000000 4.274398 -6.978777 94.402449 6.520067 -4.269100 113.601667 2.432251 -4.092342 61.435564 -0.000003 0.000001 0.000000 -22.301807 11.183484 27.749290 42.416359 -8.967008 -1.351466 -9.724898 5.192956 -21.533339 -3.903706 0.000033 0.000004 0.000000 -0.000005 -0.000000 -25.133496 5.699033 -30.360413 65.319572 9.142373 -7.810239 -29.619283 -9.679757 21.853884 -2.008339 0.000018 0.000007 -0.000000 0.000001 -0.000000 
-0.190384 29.313908 -0.269991 -10.721466 -51.979293 -1.997733 7.700620 0.219504 -3.324311 13.471028 1.247502 -5.375650 0.000000 0.000000 0.000000 13.463746 1.291651 -5.383118 3.970778 2.575106 -0.513148 -6.939622 39.500299 -7.024653 0.000001 -0.000000 0.000000 -0.604227 -6.510281 2.042955 0.000000 0.000000 0.000000 -15.274328 19.486403 -56.458074 -0.000013 -128.879604 0.000002 -13.542286 1.471587 15.982713 -2.260600 6.272424 9.731076 25.893599 36.237213 -25.070927 4.652651 20.331228 19.858025 -0.000000 0.000000 0.000001 20.016832 8.154969 -90.469346 7.393996 5.644663 -105.315404 4.939929 5.779930 -81.025906 -0.000001 -0.000001 0.000003 12.388796 7.393814 -97.702058 7.049945 5.727336 -101.843742 4.498382 5.693097 -76.610626 -0.000000 -0.000001 -0.000001 5.767019 8.220531 -93.638253 8.149366 5.382233 -113.164835 3.014287 5.119476 -60.956406 -0.000000 -0.000000 0.000000 10.874084 26.686425 2.331212 0.000000 0.000000 0.000000 -47.669888 38.728962 52.535674 -0.000030 105.112670 -0.000022 -23.149345 9.982410 13.220408 -8.137371 -3.262904 -18.533811 25.834257 -37.721175 25.070337 5.882217 -26.134935 -20.631119 -0.000000 -0.000001 0.000003 19.001468 -7.055780 89.797030 5.881611 -4.493657 105.259233 3.931018 -4.600335 81.019868 0.000000 -0.000001 -0.000004 10.888997 -6.283847 96.371524 5.608384 -4.559204 101.797693 3.579629 -4.531041 76.607832 -0.000002 -0.000001 -0.000002 4.247084 -6.963861 93.132471 6.482540 -4.285240 113.098370 2.399531 -4.074421 60.976172 -0.000002 0.000001 0.000005 -22.111769 10.364787 26.903096 40.522764 -8.350187 -0.477661 -7.833307 5.065400 -22.530339 -5.669426 0.000008 -0.000005 0.000000 0.000001 0.000000 -24.472040 5.248743 -30.231664 66.166576 8.931032 -7.379863 -31.098937 -10.544127 20.264724 -1.965017 0.000005 -0.000007 -0.000000 -0.000002 0.000000 
-0.315585 29.356339 -0.489538 -10.371486 -50.432495 -1.407324 9.080391 0.170823 -3.836323 13.571641 1.134039 -5.519533 0.000000 0.000000 0.000000 13.568756 1.181525 -5.516791 3.692160 2.416201 -0.492103 -8.158097 37.043490 -7.461733 -0.000000 0.000000 0.000000 -0.610951 -7.055528 1.499519 0.000000 0.000000 0.000000 -13.733039 19.141716 -55.614433 -0.000010 -129.834615 0.000006 -19.817037 3.436071 27.557057 -2.360275 5.784474 9.581066 25.946427 36.287743 -25.056967 4.646432 20.408503 19.873195 -0.000002 0.000000 0.000001 19.194874 8.579343 -88.660070 7.323518 5.663396 -104.599846 4.873999 5.769187 -80.370645 0.000000 0.000001 -0.000001 12.119557 7.635070 -95.591387 6.983973 5.740713 -101.183331 4.436223 5.678004 -75.983163 0.000002 0.000000 0.000001 5.846691 8.203659 -91.657457 8.087078 5.408325 -112.502621 2.960781 5.089522 -60.355076 0.000003 -0.000001 0.000002 10.915546 26.508832 1.381165 0.000000 0.000000 0.000000 -49.008800 38.270154 54.704966 -0.000067 102.389488 0.000016 -21.485272 5.843198 12.774793 -8.151716 -2.862860 -18.379831 25.543965 -37.497237 24.928001 5.851856 -25.820063 -20.570030 0.000006 -0.000001 -0.000004 18.460330 -7.470834 88.074340 5.823458 -4.509098 104.518218 3.876863 -4.591476 80.343898 0.000001 -0.000002 0.000001 10.585435 -6.567945 93.757576 5.554088 -4.570180 101.115616 3.528154 -4.518531 75.955399 0.000001 -0.000000 0.000001 4.210461 -6.945322 91.402541 6.431099 -4.306754 112.411677 2.355199 -4.049559 60.350069 0.000003 -0.000002 0.000001 -23.318073 8.575192 26.437232 39.677266 -7.908213 0.531843 -3.970308 4.120067 -24.586582 -7.236346 0.000004 -0.000001 0.000000 0.000000 0.000000 -23.335201 4.557431 -30.183798 66.724337 8.902828 -6.751787 -32.753598 -11.835801 18.600079 -2.081937 -0.000012 -0.000010 -0.000000 0.000001 0.000000 
-0.420259 29.393482 -0.714477 -9.885259 -48.275982 -0.754702 11.205840 0.337222 -4.260798 13.743581 1.075065 -5.733796 0.000000 0.000000 0.000000 13.747221 1.106307 -5.720682 3.149080 2.157398 -0.468787 -10.603136 33.243941 -7.617217 0.000000 0.000000 0.000000 -0.478519 -7.847185 1.562674 0.000000 0.000000 0.000000 -13.760033 17.595757 -53.833779 -0.000010 -130.472978 0.000004 -26.342491 3.338060 38.063381 -2.492745 5.144797 9.383264 26.015593 36.353955 -25.038203 4.638031 20.509774 19.893083 -0.000003 -0.000002 0.000001 18.095995 9.066951 -86.267762 7.230537 5.686684 -103.659677 4.787601 5.753936 -79.510137 -0.000002 -0.000000 0.000001 11.752359 7.931945 -92.818623 6.897065 5.757131 -100.315699 4.354871 5.657178 -75.159470 0.000002 -0.000000 0.000001 5.951897 8.200403 -89.059110 8.004819 5.441537 -111.632414 2.891081 5.049366 -59.566128 0.000000 -0.000000 0.000000 10.980248 26.274281 0.074712 0.000000 0.000000 0.000000 -50.899943 37.184001 56.537724 -0.000041 99.931282 0.000009 -19.681156 1.609460 12.204900 -8.172159 -2.337825 -18.178321 25.165106 -37.202237 24.744409 5.811830 -25.406685 -20.489772 0.000001 0.000002 -0.000000 17.731376 -7.972987 85.801246 5.746715 -4.528197 103.544090 3.805849 -4.578866 79.455748 -0.000001 -0.000000 -0.000003 10.167350 -6.911340 90.323180 5.482527 -4.583610 100.219072 3.460774 -4.501191 75.098408 -0.000001 0.000001 -0.000001 4.163236 -6.924093 89.132616 6.363073 -4.334106 111.508821 2.297376 -4.016178 59.528077 0.000004 0.000000 -0.000001 -25.713589 6.097550 25.783479 39.727577 -7.197670 1.756500 0.664941 2.084409 -26.196632 -8.253361 0.000017 0.000006 -0.000000 -0.000002 -0.000000 -21.856250 3.651293 -30.223256 67.176516 9.179843 -5.873512 -34.370229 -13.583982 16.815513 -2.401753 0.000036 0.000010 -0.000000 0.000001 0.000000 
-0.554871 29.454174 -0.983757 -9.304120 -45.446313 -0.055604 14.168614 0.709556 -4.529211 13.982875 1.088446 -5.978410 0.000000 0.000000 0.000000 13.992930 1.088518 -5.960029 2.272223 1.800420 -0.470748 -14.054569 28.080666 -7.510754 -0.000001 0.000000 0.000000 -0.208937 -8.911122 2.099280 0.000000 0.000000 0.000000 -15.686701 14.804326 -50.864224 0.000009 -130.775665 0.000007 -31.647992 1.759534 45.515909 -2.660789 4.347487 9.134797 26.101506 36.436402 -25.014038 4.627232 20.635981 19.917907 0.000001 0.000001 0.000002 16.699071 9.563606 -83.256809 7.113823 5.713646 -102.484646 4.680049 5.733073 -78.435440 0.000003 0.000000 0.000000 11.273892 8.269961 -89.353696 6.788136 5.775782 -99.231495 4.253731 5.629536 -74.131076 0.000000 0.000000 0.000000 6.081809 8.226384 -85.817912 7.901291 5.481287 -110.544692 2.804883 4.997938 -58.581781 -0.000000 0.000000 0.000001 11.035432 25.962034 -1.553434 0.000000 0.000000 0.000000 -53.207928 35.389126 57.573898 -0.000038 98.016247 0.000006 -17.767340 -2.553669 11.442975 -8.200310 -1.682461 -17.927681 24.695524 -36.832342 24.520500 5.761545 -24.890582 -20.389414 0.000003 0.000001 0.000003 16.795329 -8.530597 82.945899 5.650313 -4.550270 102.325980 3.717387 -4.561567 78.345821 0.000000 0.000001 -0.000001 9.617689 -7.291241 86.030829 5.392812 -4.598840 99.098142 3.376962 -4.478124 74.027762 -0.000002 0.000001 -0.000003 4.105120 -6.902611 86.300164 6.277422 -4.366821 110.379702 2.225879 -3.973344 58.501738 0.000003 -0.000001 -0.000002 -29.378840 2.915515 25.079070 39.379797 -7.213148 2.966498 8.319152 -1.053706 -27.846174 -10.043923 -0.000441 0.040530 0.000000 -0.000001 0.000000 -20.103634 2.431795 -30.250098 67.562216 9.794596 -4.743819 -35.774871 -15.737485 14.988196 -2.939726 0.000002 -0.000017 0.000000 0.000002 0.000000 
